<?xml version="1.0" encoding="UTF-8" standalone="no"?>
<svg width="134px" height="146px" viewBox="0 0 134 146" version="1.1" xmlns="http://www.w3.org/2000/svg" xmlns:xlink="http://www.w3.org/1999/xlink" xmlns:sketch="http://www.bohemiancoding.com/sketch/ns">
    <!-- Generator: Sketch 3.3.2 (12043) - http://www.bohemiancoding.com/sketch -->
    <title>Group</title>
    <desc>Created with Sketch.</desc>
    <defs></defs>
    <g id="Welcome" stroke="none" stroke-width="1" fill="none" fill-rule="evenodd" sketch:type="MSPage">
        <g id="Desktop" sketch:type="MSArtboardGroup" transform="translate(-43.000000, -38.000000)" fill="#D8D8D8">
            <g id="Group" sketch:type="MSLayerGroup" transform="translate(37.000000, 30.000000)">
                <text id="aclyn" sketch:type="MSTextLayer" font-family="Optima" font-size="38" font-weight="normal">
                    <tspan x="54" y="75">aclyn</tspan>
                </text>
                <text id="hen" sketch:type="MSTextLayer" font-family="Optima" font-size="38" font-weight="normal">
                    <tspan x="65" y="144">hen</tspan>
                </text>
                <path d="M33.5726539,65.3679014 C20.2466832,59.1882839 10.8906489,52.6692555 10.8906489,37.4940811 C10.8906489,22.3189066 47.294214,3.75995174 47.294214,3.75995174 C47.294214,3.75995174 49.6579784,27.307569 49.1567606,45.865294 C48.9834375,52.2826309 48.6352737,56.8836344 47.9863282,62.9630039 C46.5824178,76.1149414 44.6434377,83.2746244 43.5897009,86.4341622 C40.640338,95.2775695 38.9783314,100.898494 30.921421,104.681169 C25.7036376,107.13089 20.6562735,103.672838 17.5107656,100.433542 C15.7992157,98.670959 12.5593154,90.6369961 15.5663251,84.4203735 C18.1860584,79.0043973 23.8208291,75.4802067 27.6341347,74.254151 C35.8244687,71.6207913 45.2940307,68.4914455 45.2940307,68.4914455 C45.2940307,68.4914455 36.658705,71.8740521 30.0585876,75.3964028 C26.4050349,77.3462309 23.5602615,79.6000141 22.7098441,80.7269402 C19.7638113,84.6308597 19.1395021,88.6564051 19.139502,90.2367337 C19.1395017,95.3723704 22.596495,100.433542 25.2556034,100.433542 C27.9147119,100.433542 32.2783484,102.376897 36.8147498,93.2783465 C41.3511511,84.179796 42.8449745,75.7756889 43.5897009,57.0287871 C43.8696074,49.9827385 43.1233665,30.5378902 42.8449745,24.0121866 C42.8292401,23.6433622 41.6850298,13.4409217 41.6850298,13.4409217 C41.6850298,13.4409217 29.3069245,19.824396 26.2062689,22.5483004 C22.9059677,25.447592 19.654878,28.75801 19.1395017,29.3950368 C16.9152773,32.1442723 15.5663249,36.5186251 15.5663251,40.0618994 C15.5663254,45.1975361 20.3590396,53.1230072 27.6341351,58.5738333 C34.9092306,64.0246594 46.8986246,71.547519 33.5726539,65.3679014 Z" id="Path-6" sketch:type="MSShapeGroup" transform="translate(30.058588, 54.634467) rotate(12.000000) translate(-30.058588, -54.634467) "></path>
                <path d="M66.7041029,96.8378906 C68.9365871,100.162206 67.9423841,104.833984 67.9423841,104.833984 C67.9423841,104.833984 71.646481,98.1853183 68.9541029,93.8203125 C67.5548848,91.5518365 63.0331081,91.0839844 59.4423841,91.0839844 C48.9423822,91.0839844 40.2532399,95.9452845 36.5253909,98.8447227 C23.0253909,109.344723 21.9853514,112.848629 20.2353516,115.848629 C18.4853517,118.848629 17.5312496,119.83398 16.2529295,129.344723 C14.9746094,138.855465 18.9687498,149.08984 27.6992191,152.105465 C36.4296884,155.12109 42.7841779,154.08984 48.5029295,152.105465 C54.221681,150.12109 61.9990232,138.855465 61.9990232,138.855465 C61.9990232,138.855465 58.0097654,145.873043 47.2675779,147.873043 C42.474006,148.765519 36.2855456,149.816874 31.9492191,147.873043 C26.5680252,145.460833 22.1992186,139.379908 22.1992186,133.866207 C22.1992186,127.479868 22.9667967,120.629879 27.6992191,114.366207 C32.4316415,108.102535 35.2603344,106.36779 39.5009769,102.826169 C45.7333988,97.6210898 49.971681,96.3076171 54.971681,94.8486327 C58.7876498,93.7351449 64.8885817,94.1344602 66.7041029,96.8378906 Z" id="Path-11" sketch:type="MSShapeGroup"></path>
            </g>
        </g>
    </g>
</svg>